<svg width="48" height="48" viewBox="0 0 48 48" fill="none" xmlns="http://www.w3.org/2000/svg">
<path d="M48 24C48 37.2548 37.2548 48 24 48C10.7452 48 0 37.2548 0 24C0 10.7452 10.7452 0 24 0C37.2548 0 48 10.7452 48 24Z" fill="white"/>
<path fill-rule="evenodd" clip-rule="evenodd" d="M17.9198 14.4C12.83 14.4 8.70384 18.5261 8.70384 23.616C8.70384 28.7059 12.83 32.832 17.9198 32.832H31.56C32.0901 32.832 32.4628 32.3021 32.4084 31.7749C32.3922 31.6175 32.3838 31.4577 32.3838 31.296C32.3838 28.7511 34.4469 26.688 36.9918 26.688C37.1534 26.688 37.3131 26.6963 37.4704 26.7126C37.9976 26.767 38.5274 26.3941 38.5274 25.8642V23.616C38.5274 18.5261 34.4013 14.4 29.3114 14.4H17.9198Z" fill="#A8C0FF"/>
<path d="M36.9917 34.368C38.6883 34.368 40.0637 32.9926 40.0637 31.296C40.0637 29.5994 38.6883 28.224 36.9917 28.224C35.2951 28.224 33.9197 29.5994 33.9197 31.296C33.9197 32.9926 35.2951 34.368 36.9917 34.368Z" fill="#60A8FF"/>
</svg>
