<svg width="48" height="48" viewBox="0 0 48 48" fill="none" xmlns="http://www.w3.org/2000/svg">
<path d="M48 24C48 37.2548 37.2548 48 24 48C10.7452 48 0 37.2548 0 24C0 10.7452 10.7452 0 24 0C37.2548 0 48 10.7452 48 24Z" fill="#5865F2"/>
<path d="M34.6398 14.4805C32.6829 13.5826 30.5844 12.921 28.3904 12.5421C28.3504 12.5348 28.3105 12.5531 28.2899 12.5896C28.02 13.0696 27.7211 13.6959 27.5117 14.188C25.1519 13.8347 22.8041 13.8347 20.4926 14.188C20.2832 13.6849 19.9734 13.0696 19.7024 12.5896C19.6818 12.5543 19.6419 12.536 19.6019 12.5421C17.409 12.9198 15.3106 13.5813 13.3525 14.4805C13.3355 14.4878 13.321 14.5 13.3114 14.5158C9.33101 20.4623 8.24062 26.2627 8.77553 31.9912C8.77795 32.0192 8.79368 32.046 8.81546 32.0631C11.4416 33.9916 13.9854 35.1624 16.482 35.9385C16.522 35.9507 16.5643 35.9361 16.5898 35.9032C17.1803 35.0967 17.7068 34.2463 18.1581 33.352C18.1848 33.2997 18.1594 33.2375 18.1049 33.2168C17.2699 32.9 16.4748 32.5138 15.7099 32.0753C15.6494 32.0399 15.6446 31.9534 15.7002 31.912C15.8612 31.7914 16.0222 31.6659 16.1759 31.5392C16.2037 31.516 16.2424 31.5112 16.2751 31.5258C21.2998 33.8199 26.7396 33.8199 31.705 31.5258C31.7377 31.51 31.7765 31.5148 31.8055 31.538C31.9592 31.6647 32.1202 31.7914 32.2823 31.912C32.338 31.9534 32.3344 32.0399 32.2739 32.0753C31.509 32.5224 30.7139 32.9 29.8777 33.2156C29.8232 33.2363 29.799 33.2997 29.8256 33.352C30.2867 34.245 30.8131 35.0954 31.3928 35.9019C31.417 35.9361 31.4606 35.9507 31.5005 35.9385C34.0093 35.1624 36.5531 33.9916 39.1792 32.0631C39.2022 32.046 39.2167 32.0204 39.2192 31.9924C39.8593 25.3697 38.1469 19.6168 34.6797 14.517C34.6712 14.5 34.6567 14.4878 34.6398 14.4805ZM18.9085 28.5032C17.3957 28.5032 16.1492 27.1143 16.1492 25.4087C16.1492 23.703 17.3715 22.3142 18.9085 22.3142C20.4575 22.3142 21.6919 23.7152 21.6677 25.4087C21.6677 27.1143 20.4454 28.5032 18.9085 28.5032ZM29.1104 28.5032C27.5977 28.5032 26.3512 27.1143 26.3512 25.4087C26.3512 23.703 27.5734 22.3142 29.1104 22.3142C30.6595 22.3142 31.8938 23.7152 31.8697 25.4087C31.8697 27.1143 30.6595 28.5032 29.1104 28.5032Z" fill="white"/>
</svg>
