<svg width="48" height="48" viewBox="0 0 48 48" fill="none" xmlns="http://www.w3.org/2000/svg">
<path d="M24 44C21.2333 44 18.6333 43.475 16.2 42.425C13.7667 41.375 11.65 39.95 9.85 38.15C8.05 36.35 6.625 34.2333 5.575 31.8C4.525 29.3667 4 26.7667 4 24C4 21.2333 4.525 18.6333 5.575 16.2C6.625 13.7667 8.05 11.65 9.85 9.85C11.65 8.05 13.7667 6.625 16.2 5.575C18.6333 4.525 21.2333 4 24 4C26.7667 4 29.3667 4.525 31.8 5.575C34.2333 6.625 36.35 8.05 38.15 9.85C39.95 11.65 41.375 13.7667 42.425 16.2C43.475 18.6333 44 21.2333 44 24V26.65C44 28.5167 43.3417 30.0917 42.025 31.375C40.7083 32.6583 39.1 33.3 37.2 33.3C36 33.3 34.8667 33.0083 33.8 32.425C32.7333 31.8417 31.9167 31.0167 31.35 29.95C30.4833 31.0833 29.4 31.925 28.1 32.475C26.8 33.025 25.4333 33.3 24 33.3C21.4 33.3 19.1917 32.4 17.375 30.6C15.5583 28.8 14.65 26.6 14.65 24C14.65 21.4 15.5583 19.1833 17.375 17.35C19.1917 15.5167 21.4 14.6 24 14.6C26.6 14.6 28.8083 15.5167 30.625 17.35C32.4417 19.1833 33.35 21.4 33.35 24V26.65C33.35 27.6833 33.725 28.55 34.475 29.25C35.225 29.95 36.1333 30.3 37.2 30.3C38.2333 30.3 39.125 29.95 39.875 29.25C40.625 28.55 41 27.6833 41 26.65V24C41 19.2667 39.35 15.25 36.05 11.95C32.75 8.65 28.7333 7 24 7C19.2667 7 15.25 8.65 11.95 11.95C8.65 15.25 7 19.2667 7 24C7 28.7333 8.65 32.75 11.95 36.05C15.25 39.35 19.2667 41 24 41H34.7V44H24ZM24 30.3C25.7667 30.3 27.2667 29.6917 28.5 28.475C29.7333 27.2583 30.35 25.7667 30.35 24C30.35 22.2 29.7333 20.6833 28.5 19.45C27.2667 18.2167 25.7667 17.6 24 17.6C22.2333 17.6 20.7333 18.2167 19.5 19.45C18.2667 20.6833 17.65 22.2 17.65 24C17.65 25.7667 18.2667 27.2583 19.5 28.475C20.7333 29.6917 22.2333 30.3 24 30.3Z" fill="black"/>
</svg>
