<svg width="48" height="48" viewBox="0 0 48 48" fill="none" xmlns="http://www.w3.org/2000/svg">
<path d="M23 44C19.9667 44 17.375 42.9583 15.225 40.875C13.075 38.7917 12 36.2333 12 33.2V11.7C12 9.56667 12.7583 7.75 14.275 6.25C15.7917 4.75 17.6167 4 19.75 4C21.9167 4 23.75 4.75 25.25 6.25C26.75 7.75 27.5 9.58333 27.5 11.75V31.45C27.5 32.7167 27.0667 33.7917 26.2 34.675C25.3333 35.5583 24.2667 36 23 36C21.7333 36 20.6667 35.525 19.8 34.575C18.9333 33.625 18.5 32.5 18.5 31.2V11.6H20.5V31.35C20.5 32.0833 20.7417 32.7083 21.225 33.225C21.7083 33.7417 22.3 34 23 34C23.7 34 24.2917 33.75 24.775 33.25C25.2583 32.75 25.5 32.15 25.5 31.45V11.7C25.5 10.1 24.9417 8.75 23.825 7.65C22.7083 6.55 21.35 6 19.75 6C18.15 6 16.7917 6.55 15.675 7.65C14.5583 8.75 14 10.1 14 11.7V33.3C14 35.7333 14.8833 37.7917 16.65 39.475C18.4167 41.1583 20.5333 42 23 42C25.5 42 27.625 41.15 29.375 39.45C31.125 37.75 32 35.6667 32 33.2V11.6H34V33.15C34 36.1833 32.925 38.75 30.775 40.85C28.625 42.95 26.0333 44 23 44Z" fill="black"/>
</svg>
