<svg width="48" height="48" viewBox="0 0 48 48" fill="none" xmlns="http://www.w3.org/2000/svg">
<path d="M23.6 31.7L25.7 29.6L19.5 23.4V14.5H16.5V24.6L23.6 31.7ZM36.35 40.8V37.4C38.9833 36.1667 41.0833 34.35 42.65 31.95C44.2167 29.55 45 26.8833 45 23.95C45 21.05 44.2167 18.3917 42.65 15.975C41.0833 13.5583 38.9833 11.75 36.35 10.55V7.15C39.8167 8.55 42.625 10.7667 44.775 13.8C46.925 16.8333 48 20.2167 48 23.95C48 27.6833 46.9333 31.075 44.8 34.125C42.6667 37.175 39.85 39.4 36.35 40.8ZM18 41.95C15.5 41.95 13.1583 41.475 10.975 40.525C8.79167 39.575 6.89167 38.2917 5.275 36.675C3.65833 35.0583 2.375 33.1583 1.425 30.975C0.475 28.7917 0 26.45 0 23.95C0 21.45 0.475 19.1083 1.425 16.925C2.375 14.7417 3.65833 12.8417 5.275 11.225C6.89167 9.60833 8.79167 8.325 10.975 7.375C13.1583 6.425 15.5 5.95 18 5.95C20.5 5.95 22.8417 6.425 25.025 7.375C27.2083 8.325 29.1083 9.60833 30.725 11.225C32.3417 12.8417 33.625 14.7417 34.575 16.925C35.525 19.1083 36 21.45 36 23.95C36 26.45 35.525 28.7917 34.575 30.975C33.625 33.1583 32.3417 35.0583 30.725 36.675C29.1083 38.2917 27.2083 39.575 25.025 40.525C22.8417 41.475 20.5 41.95 18 41.95ZM18 38.95C22.1333 38.95 25.6667 37.4917 28.6 34.575C31.5333 31.6583 33 28.1167 33 23.95C33 19.8167 31.5333 16.2833 28.6 13.35C25.6667 10.4167 22.1333 8.95 18 8.95C13.8333 8.95 10.2917 10.4167 7.375 13.35C4.45833 16.2833 3 19.8167 3 23.95C3 28.1167 4.45833 31.6583 7.375 34.575C10.2917 37.4917 13.8333 38.95 18 38.95Z" fill="black"/>
</svg>
