<svg width="48" height="48" viewBox="0 0 48 48" fill="none" xmlns="http://www.w3.org/2000/svg">
<path d="M36.5 25.5V22.5H44V25.5H36.5ZM39 40L32.95 35.5L34.75 33.1L40.8 37.6L39 40ZM34.9 14.85L33.1 12.45L39 8L40.8 10.4L34.9 14.85ZM10.5 38V30H7C6.16667 30 5.45833 29.7083 4.875 29.125C4.29167 28.5417 4 27.8333 4 27V21C4 20.1667 4.29167 19.4583 4.875 18.875C5.45833 18.2917 6.16667 18 7 18H16L26 12V36L16 30H13.5V38H10.5ZM28 30.7V17.3C28.9 18.1 29.625 19.075 30.175 20.225C30.725 21.375 31 22.6333 31 24C31 25.3667 30.725 26.625 30.175 27.775C29.625 28.925 28.9 29.9 28 30.7ZM7 21V27H16.8L23 30.7V17.3L16.8 21H7Z" fill="black"/>
</svg>
