<svg width="48" height="48" viewBox="0 0 48 48" fill="none" xmlns="http://www.w3.org/2000/svg">
<path d="M40.8121 37.314C43.0743 37.314 44.9081 35.4802 44.9081 33.218C44.9081 30.9558 43.0743 29.122 40.8121 29.122C38.55 29.122 36.7161 30.9558 36.7161 33.218C36.7161 35.4802 38.55 37.314 40.8121 37.314Z" fill="black"/>
<path fill-rule="evenodd" clip-rule="evenodd" d="M15.383 10.69C8.59648 10.69 3.09497 16.1915 3.09497 22.978C3.09497 29.7645 8.59648 35.266 15.383 35.266H33.5699C34.2766 35.266 34.7737 34.5595 34.7011 33.8565C34.6795 33.6467 34.6683 33.4336 34.6683 33.218C34.6683 29.8248 37.4191 27.074 40.8123 27.074C41.0278 27.074 41.2407 27.0851 41.4505 27.1068C42.1534 27.1793 42.8598 26.6822 42.8598 25.9756V22.978C42.8598 16.1915 37.3583 10.69 30.5718 10.69H15.383Z" fill="black"/>
</svg>
