<svg width="48" height="48" viewBox="0 0 48 48" fill="none" xmlns="http://www.w3.org/2000/svg">
<path d="M38.1849 10.9866C35.5757 9.78935 32.7777 8.90731 29.8523 8.40212C29.799 8.39237 29.7458 8.41674 29.7184 8.46547C29.3585 9.10547 28.9599 9.94042 28.6808 10.5967C25.5343 10.1256 22.404 10.1256 19.322 10.5967C19.0428 9.92583 18.6298 9.10547 18.2683 8.46547C18.2409 8.41836 18.1876 8.394 18.1344 8.40212C15.2105 8.90569 12.4126 9.78774 9.8018 10.9866C9.7792 10.9963 9.75982 11.0126 9.74697 11.0337C4.43984 18.9624 2.98599 26.6963 3.6992 34.3342C3.70243 34.3716 3.7234 34.4073 3.75245 34.43C7.25394 37.0015 10.6457 38.5625 13.9745 39.5973C14.0278 39.6135 14.0843 39.594 14.1182 39.5502C14.9056 38.4748 15.6075 37.341 16.2094 36.1486C16.2449 36.0788 16.211 35.996 16.1384 35.9684C15.025 35.546 13.9649 35.0311 12.9451 34.4463C12.8644 34.3992 12.8579 34.2838 12.9321 34.2286C13.1467 34.0678 13.3614 33.9005 13.5663 33.7315C13.6034 33.7007 13.6551 33.6942 13.6986 33.7137C20.3982 36.7724 27.6513 36.7724 34.2719 33.7137C34.3155 33.6925 34.3671 33.6991 34.4058 33.7299C34.6108 33.8988 34.8254 34.0678 35.0416 34.2286C35.1158 34.2838 35.111 34.3992 35.0303 34.4463C34.0105 35.0424 32.9504 35.546 31.8354 35.9667C31.7628 35.9944 31.7305 36.0788 31.766 36.1486C32.3808 37.3393 33.0827 38.4732 33.8556 39.5485C33.8879 39.594 33.9459 39.6135 33.9992 39.5973C37.3442 38.5625 40.7359 37.0015 44.2374 34.43C44.2681 34.4073 44.2875 34.3732 44.2907 34.3358C45.1443 25.5055 42.861 17.8351 38.2381 11.0353C38.2268 11.0126 38.2075 10.9963 38.1849 10.9866ZM17.2098 29.6835C15.1928 29.6835 13.5308 27.8317 13.5308 25.5575C13.5308 23.2833 15.1606 21.4315 17.2098 21.4315C19.2752 21.4315 20.9211 23.2996 20.8888 25.5575C20.8888 27.8317 19.259 29.6835 17.2098 29.6835ZM30.8124 29.6835C28.7954 29.6835 27.1334 27.8317 27.1334 25.5575C27.1334 23.2833 28.7631 21.4315 30.8124 21.4315C32.8778 21.4315 34.5236 23.2996 34.4914 25.5575C34.4914 27.8317 32.8778 29.6835 30.8124 29.6835Z" fill="black"/>
</svg>
