<svg width="48" height="48" viewBox="0 0 48 48" fill="none" xmlns="http://www.w3.org/2000/svg">
<path d="M24 41.95L21.95 40.1C16.5167 35.1333 12.1667 30.8 8.9 27.1C5.63333 23.4 4 19.65 4 15.85C4 12.85 5.00833 10.3417 7.025 8.325C9.04167 6.30833 11.5333 5.3 14.5 5.3C16.2 5.3 17.8833 5.70833 19.55 6.525C21.2167 7.34167 22.7 8.68333 24 10.55C25.4667 8.68333 26.9833 7.34167 28.55 6.525C30.1167 5.70833 31.7667 5.3 33.5 5.3C36.4667 5.3 38.9583 6.30833 40.975 8.325C42.9917 10.3417 44 12.85 44 15.85C44 19.65 42.3667 23.4 39.1 27.1C35.8333 30.8 31.4833 35.1333 26.05 40.1L24 41.95ZM24 38C29.0667 33.3333 33.1667 29.2833 36.3 25.85C39.4333 22.4167 41 19.0833 41 15.85C41 13.65 40.2917 11.8417 38.875 10.425C37.4583 9.00833 35.6667 8.3 33.5 8.3C31.8333 8.3 30.2667 8.81667 28.8 9.85C27.3333 10.8833 26.1333 12.3667 25.2 14.3H22.75C21.85 12.3667 20.6583 10.8833 19.175 9.85C17.6917 8.81667 16.1333 8.3 14.5 8.3C12.3 8.3 10.5 9.00833 9.1 10.425C7.7 11.8417 7 13.65 7 15.85C7 19.0833 8.56667 22.4167 11.7 25.85C14.8333 29.2833 18.9333 33.3333 24 38Z" fill="black"/>
</svg>
