<svg width="48" height="48" viewBox="0 0 48 48" fill="none" xmlns="http://www.w3.org/2000/svg">
<path d="M24 41.95L21.95 40.1C16.5167 35.1333 12.1667 30.8 8.9 27.1C5.63333 23.4 4 19.65 4 15.85C4 12.85 5.00833 10.3417 7.025 8.325C9.04167 6.30833 11.5333 5.3 14.5 5.3C16.2 5.3 17.8833 5.70833 19.55 6.525C21.2167 7.34167 22.7 8.68333 24 10.55C25.4667 8.68333 26.9833 7.34167 28.55 6.525C30.1167 5.70833 31.7667 5.3 33.5 5.3C36.4667 5.3 38.9583 6.30833 40.975 8.325C42.9917 10.3417 44 12.85 44 15.85C44 19.65 42.3667 23.4 39.1 27.1C35.8333 30.8 31.4833 35.1333 26.05 40.1L24 41.95Z" fill="black"/>
</svg>
