<svg width="48" height="48" viewBox="0 0 48 48" fill="none" xmlns="http://www.w3.org/2000/svg">
<path d="M1.90002 40V35.3C1.90002 34.1333 2.20002 33.075 2.80002 32.125C3.40002 31.175 4.23336 30.4667 5.30002 30C7.73336 28.9333 9.92502 28.1667 11.875 27.7C13.825 27.2333 15.8334 27 17.9 27C19.9667 27 21.9667 27.2333 23.9 27.7C25.8334 28.1667 28.0167 28.9333 30.45 30C31.5167 30.4667 32.3584 31.175 32.975 32.125C33.5917 33.075 33.9 34.1333 33.9 35.3V40H1.90002ZM17.9 23.95C15.7 23.95 13.9 23.25 12.5 21.85C11.1 20.45 10.4 18.65 10.4 16.45C10.4 14.25 11.1 12.45 12.5 11.05C13.9 9.65 15.7 8.95 17.9 8.95C20.1 8.95 21.9 9.65 23.3 11.05C24.7 12.45 25.4 14.25 25.4 16.45C25.4 18.65 24.7 20.45 23.3 21.85C21.9 23.25 20.1 23.95 17.9 23.95ZM35.9 16.45C35.9 18.65 35.2 20.45 33.8 21.85C32.4 23.25 30.6 23.95 28.4 23.95C28.0334 23.95 27.625 23.925 27.175 23.875C26.725 23.825 26.3167 23.7333 25.95 23.6C26.75 22.7667 27.3584 21.7417 27.775 20.525C28.1917 19.3083 28.4 17.95 28.4 16.45C28.4 14.95 28.1917 13.625 27.775 12.475C27.3584 11.325 26.75 10.2667 25.95 9.3C26.3167 9.2 26.725 9.11667 27.175 9.05C27.625 8.98333 28.0334 8.95 28.4 8.95C30.6 8.95 32.4 9.65 33.8 11.05C35.2 12.45 35.9 14.25 35.9 16.45ZM36.9 40V35.3C36.9 33.2 36.3667 31.475 35.3 30.125C34.2334 28.775 32.8334 27.6833 31.1 26.85C33.4 27.1167 35.5667 27.5083 37.6 28.025C39.6334 28.5417 41.2834 29.1333 42.55 29.8C43.65 30.4333 44.5167 31.2167 45.15 32.15C45.7834 33.0833 46.1 34.1333 46.1 35.3V40H36.9Z" fill="black"/>
</svg>
