<svg width="48" height="48" viewBox="0 0 48 48" fill="none" xmlns="http://www.w3.org/2000/svg">
<path d="M24 26.85C22.5667 26.85 21.3667 26.3333 20.4 25.3C19.4333 24.2667 18.95 23.0167 18.95 21.55V9C18.95 7.6 19.4417 6.41667 20.425 5.45C21.4083 4.48333 22.6 4 24 4C25.4 4 26.5917 4.48333 27.575 5.45C28.5583 6.41667 29.05 7.6 29.05 9V21.55C29.05 23.0167 28.5667 24.2667 27.6 25.3C26.6333 26.3333 25.4333 26.85 24 26.85ZM22.5 42V35.2C18.9667 34.8333 16 33.35 13.6 30.75C11.2 28.15 10 25.0833 10 21.55H13C13 24.5833 14.075 27.1333 16.225 29.2C18.375 31.2667 20.9667 32.3 24 32.3C27.0333 32.3 29.625 31.2667 31.775 29.2C33.925 27.1333 35 24.5833 35 21.55H38C38 25.0833 36.8 28.15 34.4 30.75C32 33.35 29.0333 34.8333 25.5 35.2V42H22.5Z" fill="black"/>
</svg>
