<svg width="48" height="48" viewBox="0 0 48 48" fill="none" xmlns="http://www.w3.org/2000/svg">
<path d="M24.0001 40C23.3334 40 22.7668 39.7667 22.3001 39.3C21.8334 38.8333 21.6001 38.2667 21.6001 37.6C21.6001 36.9333 21.8334 36.3667 22.3001 35.9C22.7668 35.4333 23.3334 35.2 24.0001 35.2C24.6668 35.2 25.2334 35.4333 25.7001 35.9C26.1668 36.3667 26.4001 36.9333 26.4001 37.6C26.4001 38.2667 26.1668 38.8333 25.7001 39.3C25.2334 39.7667 24.6668 40 24.0001 40ZM24.0001 26.4C23.3334 26.4 22.7668 26.1667 22.3001 25.7C21.8334 25.2333 21.6001 24.6667 21.6001 24C21.6001 23.3333 21.8334 22.7667 22.3001 22.3C22.7668 21.8333 23.3334 21.6 24.0001 21.6C24.6668 21.6 25.2334 21.8333 25.7001 22.3C26.1668 22.7667 26.4001 23.3333 26.4001 24C26.4001 24.6667 26.1668 25.2333 25.7001 25.7C25.2334 26.1667 24.6668 26.4 24.0001 26.4ZM24.0001 12.8C23.3334 12.8 22.7668 12.5667 22.3001 12.1C21.8334 11.6333 21.6001 11.0667 21.6001 10.4C21.6001 9.73333 21.8334 9.16667 22.3001 8.7C22.7668 8.23333 23.3334 8 24.0001 8C24.6668 8 25.2334 8.23333 25.7001 8.7C26.1668 9.16667 26.4001 9.73333 26.4001 10.4C26.4001 11.0667 26.1668 11.6333 25.7001 12.1C25.2334 12.5667 24.6668 12.8 24.0001 12.8Z" fill="black"/>
</svg>
