<svg width="48" height="48" viewBox="0 0 48 48" fill="none" xmlns="http://www.w3.org/2000/svg">
<path d="M17.3 45L13.5 38.5L5.95 36.95L6.8 29.6L2 24L6.8 18.45L5.95 11.1L13.5 9.55L17.3 3L24 6.1L30.7 3L34.55 9.55L42.05 11.1L41.2 18.45L46 24L41.2 29.6L42.05 36.95L34.55 38.5L30.7 45L24 41.9L17.3 45ZM21.85 30.65L33.2 19.4L30.95 17.35L21.85 26.35L17.1 21.4L14.8 23.65L21.85 30.65ZM18.65 41.05L24 38.8L29.5 41.05L32.85 36.05L38.7 34.55L38.1 28.6L42.15 24L38.1 19.3L38.7 13.35L32.85 11.95L29.4 6.95L24 9.2L18.5 6.95L15.15 11.95L9.3 13.35L9.9 19.3L5.85 24L9.9 28.6L9.3 34.65L15.15 36.05L18.65 41.05Z" fill="black"/>
</svg>
