<svg width="48" height="48" viewBox="0 0 48 48" fill="none" xmlns="http://www.w3.org/2000/svg">
<path d="M7.35 29.2C5.85 29.2 4.58333 28.6833 3.55 27.65C2.51667 26.6167 2 25.35 2 23.85C2 22.35 2.51667 21.0833 3.55 20.05C4.58333 19.0167 5.85 18.5 7.35 18.5V12.35C7.35 11.55 7.65 10.85 8.25 10.25C8.85 9.65 9.55 9.35 10.35 9.35H18.65C18.65 7.85 19.1667 6.58333 20.2 5.55C21.2333 4.51667 22.5 4 24 4C25.5 4 26.7667 4.51667 27.8 5.55C28.8333 6.58333 29.35 7.85 29.35 9.35H37.65C38.45 9.35 39.15 9.65 39.75 10.25C40.35 10.85 40.65 11.55 40.65 12.35V18.5C42.15 18.5 43.4167 19.0167 44.45 20.05C45.4833 21.0833 46 22.35 46 23.85C46 25.35 45.4833 26.6167 44.45 27.65C43.4167 28.6833 42.15 29.2 40.65 29.2V39C40.65 39.8 40.35 40.5 39.75 41.1C39.15 41.7 38.45 42 37.65 42H10.35C9.55 42 8.85 41.7 8.25 41.1C7.65 40.5 7.35 39.8 7.35 39V29.2ZM17.15 24.2C17.7167 24.2 18.1917 24.0083 18.575 23.625C18.9583 23.2417 19.15 22.7667 19.15 22.2C19.15 21.6333 18.9583 21.1583 18.575 20.775C18.1917 20.3917 17.7167 20.2 17.15 20.2C16.5833 20.2 16.1083 20.3917 15.725 20.775C15.3417 21.1583 15.15 21.6333 15.15 22.2C15.15 22.7667 15.3417 23.2417 15.725 23.625C16.1083 24.0083 16.5833 24.2 17.15 24.2ZM30.85 24.2C31.4167 24.2 31.8917 24.0083 32.275 23.625C32.6583 23.2417 32.85 22.7667 32.85 22.2C32.85 21.6333 32.6583 21.1583 32.275 20.775C31.8917 20.3917 31.4167 20.2 30.85 20.2C30.2833 20.2 29.8083 20.3917 29.425 20.775C29.0417 21.1583 28.85 21.6333 28.85 22.2C28.85 22.7667 29.0417 23.2417 29.425 23.625C29.8083 24.0083 30.2833 24.2 30.85 24.2ZM15.6 33.75H32.4V30.75H15.6V33.75Z" fill="black"/>
</svg>
