<svg width="48" height="48" viewBox="0 0 48 48" fill="none" xmlns="http://www.w3.org/2000/svg">
<path fill-rule="evenodd" clip-rule="evenodd" d="M9.01402 21.9982C18.3427 17.9339 24.5632 15.2544 27.6757 13.9598C36.5624 10.2635 38.409 9.62143 39.6126 9.60022C39.8773 9.59556 40.4692 9.66117 40.8526 9.97227C41.1763 10.235 41.2654 10.5898 41.308 10.8389C41.3507 11.0879 41.4037 11.6553 41.3615 12.0986C40.88 17.1586 38.7962 29.4377 37.7361 35.105C37.2875 37.503 36.4043 38.307 35.5492 38.3857C33.6909 38.5567 32.2798 37.1576 30.4799 35.9778C27.6635 34.1316 26.0724 32.9823 23.3386 31.1808C20.1792 29.0988 22.2273 27.9545 24.0278 26.0844C24.4991 25.595 32.6868 18.1476 32.8452 17.472C32.8651 17.3875 32.8835 17.0726 32.6963 16.9063C32.5092 16.74 32.2331 16.7968 32.0338 16.8421C31.7513 16.9062 27.2521 19.88 18.536 25.7636C17.2589 26.6405 16.1022 27.0678 15.0657 27.0454C13.9232 27.0208 11.7253 26.3994 10.0915 25.8683C8.08747 25.2169 6.49473 24.8725 6.63342 23.7662C6.70566 23.1899 7.49919 22.6006 9.01402 21.9982Z" fill="black"/>
</svg>
